<svg fill="#000000" xmlns="http://www.w3.org/2000/svg"  viewBox="0 0 50 50" width="50px" height="50px"><path fill="none" stroke="#000000" stroke-linejoin="round" stroke-miterlimit="10" stroke-width="2" d="M11 5H4C3.4 5 3 5.4 3 6v40c0 .6.4 1 1 1h42c.6 0 1-.4 1-1V6c0-.6-.4-1-1-1h-7M35 5L15 5M3 14L47 14"/><path fill="none" stroke="#000000" stroke-miterlimit="10" stroke-width="2" d="M11 20L39 20 39 41 30 41 11 41z"/><path fill="none" stroke="#000000" stroke-linejoin="round" stroke-miterlimit="10" stroke-width="2" d="M11 27L39 27M11 34L39 34M25 20L25 41M18 20L18 41M32 20L32 41M38 9h-2c-.552 0-1-.448-1-1V2c0-.552.448-1 1-1h2c.552 0 1 .448 1 1v6C39 8.552 38.552 9 38 9zM14 9h-2c-.552 0-1-.448-1-1V2c0-.552.448-1 1-1h2c.552 0 1 .448 1 1v6C15 8.552 14.552 9 14 9z"/></svg>