<svg xmlns="http://www.w3.org/2000/svg" xmlns:xlink="http://www.w3.org/1999/xlink" preserveAspectRatio="xMidYMid" width="8" height="19" viewBox="0 0 8 19">
  <defs>
    <style>
      .cls-1 {
        fill: #ccc;
        fill-rule: evenodd;
      }
    </style>
  </defs>
  <path d="M1.729,3.680 C1.729,4.158 1.729,6.295 1.729,6.295 L-0.000,6.295 L-0.000,9.494 L1.729,9.494 L1.729,19.000 L5.281,19.000 L5.281,9.494 L7.665,9.494 C7.665,9.494 7.888,7.961 7.996,6.283 C7.686,6.283 5.294,6.283 5.294,6.283 C5.294,6.283 5.294,4.423 5.294,4.096 C5.294,3.770 5.682,3.330 6.065,3.330 C6.447,3.330 7.253,3.330 8.000,3.330 C8.000,2.894 8.000,1.389 8.000,-0.000 C7.003,-0.000 5.868,-0.000 5.368,-0.000 C1.641,-0.001 1.729,3.201 1.729,3.680 Z" class="cls-1"/>
</svg>
