<svg xmlns="http://www.w3.org/2000/svg" xmlns:xlink="http://www.w3.org/1999/xlink" preserveAspectRatio="xMidYMid" width="15" height="15" viewBox="0 0 15 15">
  <defs>
    <style>
      .cls-1 {
        fill: #ccc;
        fill-rule: evenodd;
      }
    </style>
  </defs>
  <path d="M1.925,-0.001 L13.075,-0.001 C14.134,-0.001 15.000,0.783 15.000,1.924 L15.000,13.075 C15.000,14.216 14.134,15.000 13.075,15.000 L1.925,15.000 C0.865,15.000 -0.001,14.216 -0.001,13.075 L-0.001,1.924 C-0.001,0.783 0.865,-0.001 1.925,-0.001 L1.925,-0.001 ZM10.927,1.665 C10.555,1.665 10.252,1.969 10.252,2.341 L10.252,3.957 C10.252,4.329 10.555,4.633 10.927,4.633 L12.622,4.633 C12.994,4.633 13.298,4.329 13.298,3.957 L13.298,2.341 C13.298,1.969 12.994,1.665 12.622,1.665 L10.927,1.665 L10.927,1.665 ZM13.305,6.343 L11.985,6.343 C12.109,6.751 12.177,7.183 12.177,7.630 C12.177,10.125 10.089,12.148 7.514,12.148 C4.939,12.148 2.851,10.125 2.851,7.630 C2.851,7.183 2.919,6.751 3.044,6.343 L1.666,6.343 L1.666,12.679 C1.666,13.008 1.934,13.276 2.262,13.276 L12.709,13.276 C13.037,13.276 13.305,13.008 13.305,12.679 L13.305,6.343 L13.305,6.343 ZM7.514,4.548 C5.850,4.548 4.501,5.855 4.501,7.467 C4.501,9.079 5.850,10.386 7.514,10.386 C9.178,10.386 10.527,9.079 10.527,7.467 C10.527,5.855 9.178,4.548 7.514,4.548 Z" class="cls-1"/>
</svg>
