<svg xmlns="http://www.w3.org/2000/svg" xmlns:xlink="http://www.w3.org/1999/xlink" preserveAspectRatio="xMidYMid" width="12" height="19" viewBox="0 0 12 19">
  <defs>
    <style>
      .cls-1 {
        fill: #ccc;
        fill-rule: evenodd;
      }
    </style>
  </defs>
  <path d="M11.686,11.506 C11.068,12.109 10.323,12.546 9.497,12.851 C8.715,13.139 7.858,13.284 7.011,13.381 C7.139,13.513 7.199,13.578 7.279,13.654 C8.430,14.753 9.585,15.848 10.733,16.950 C11.124,17.326 11.205,17.792 10.990,18.229 C10.755,18.707 10.228,19.020 9.711,18.987 C9.384,18.965 9.129,18.811 8.902,18.594 C8.034,17.763 7.149,16.948 6.298,16.101 C6.050,15.855 5.931,15.902 5.713,16.115 C4.839,16.970 3.951,17.812 3.058,18.649 C2.657,19.025 2.179,19.093 1.714,18.878 C1.220,18.651 0.905,18.171 0.929,17.688 C0.946,17.362 1.115,17.113 1.350,16.889 C2.489,15.809 3.625,14.725 4.761,13.642 C4.837,13.570 4.907,13.494 5.016,13.382 C3.467,13.229 2.070,12.866 0.874,11.977 C0.725,11.866 0.572,11.759 0.437,11.636 C-0.087,11.158 -0.140,10.611 0.275,10.047 C0.629,9.564 1.224,9.435 1.842,9.712 C1.962,9.766 2.076,9.833 2.185,9.905 C4.414,11.361 7.477,11.401 9.715,9.970 C9.936,9.809 10.173,9.677 10.448,9.610 C10.982,9.479 11.480,9.666 11.766,10.110 C12.094,10.617 12.090,11.112 11.686,11.506 ZM5.960,9.617 C3.196,9.608 0.929,7.430 0.945,4.798 C0.961,2.137 3.230,-0.007 6.021,0.001 C8.818,0.008 11.063,2.183 11.049,4.871 C11.035,7.497 8.753,9.626 5.960,9.617 ZM6.001,2.456 C4.618,2.455 3.513,3.514 3.524,4.833 C3.534,6.134 4.638,7.167 6.014,7.162 C7.385,7.158 8.477,6.111 8.473,4.804 C8.468,3.498 7.373,2.458 6.001,2.456 Z" class="cls-1"/>
</svg>
