<svg xmlns="http://www.w3.org/2000/svg" xmlns:xlink="http://www.w3.org/1999/xlink" preserveAspectRatio="xMidYMid" width="23" height="13" viewBox="0 0 23 13">
  <defs>
    <style>
      .cls-1 {
        fill: #ccc;
        fill-rule: evenodd;
      }
    </style>
  </defs>
  <path d="M19.795,8.266 C20.558,9.010 21.363,9.710 22.048,10.529 C22.350,10.893 22.636,11.268 22.855,11.691 C23.165,12.291 22.884,12.952 22.345,12.988 L18.994,12.986 C18.130,13.058 17.441,12.710 16.861,12.120 C16.397,11.648 15.968,11.146 15.521,10.658 C15.339,10.459 15.147,10.271 14.919,10.122 C14.461,9.826 14.064,9.917 13.803,10.393 C13.536,10.878 13.476,11.415 13.450,11.955 C13.414,12.743 13.175,12.950 12.383,12.986 C10.689,13.066 9.081,12.810 7.588,11.957 C6.271,11.204 5.251,10.142 4.362,8.940 C2.632,6.598 1.307,4.026 0.116,1.381 C-0.152,0.784 0.044,0.464 0.702,0.453 C1.795,0.432 2.888,0.434 3.983,0.452 C4.427,0.458 4.721,0.713 4.893,1.132 C5.484,2.584 6.208,3.966 7.116,5.247 C7.358,5.588 7.605,5.929 7.956,6.169 C8.345,6.435 8.640,6.347 8.823,5.914 C8.939,5.641 8.990,5.345 9.016,5.052 C9.103,4.041 9.114,3.033 8.962,2.026 C8.869,1.398 8.515,0.992 7.887,0.872 C7.567,0.812 7.615,0.693 7.770,0.510 C8.039,0.196 8.292,-0.001 8.797,-0.001 L12.584,-0.001 C13.180,0.117 13.313,0.384 13.394,0.984 L13.398,5.185 C13.391,5.417 13.513,6.105 13.932,6.259 C14.267,6.368 14.487,6.101 14.688,5.888 C15.595,4.927 16.242,3.792 16.820,2.616 C17.077,2.098 17.297,1.561 17.511,1.025 C17.669,0.626 17.918,0.430 18.367,0.439 L22.012,0.442 C22.120,0.442 22.229,0.444 22.334,0.462 C22.948,0.566 23.116,0.830 22.926,1.429 C22.628,2.369 22.046,3.152 21.477,3.939 C20.870,4.779 20.220,5.590 19.617,6.435 C19.063,7.207 19.107,7.596 19.795,8.266 L19.795,8.266 Z" class="cls-1"/>
</svg>
